<?xml version="1.0" standalone="no"?>
<!DOCTYPE svg PUBLIC "-//W3C//DTD SVG 20010904//EN"
 "http://www.w3.org/TR/2001/REC-SVG-20010904/DTD/svg10.dtd">
<svg version="1.0" xmlns="http://www.w3.org/2000/svg"
 width="2400.000000pt" height="2400.000000pt" viewBox="0 0 2400.000000 2400.000000"
 preserveAspectRatio="xMidYMid meet">
<metadata>
Created by potrace 1.11, written by Peter Selinger 2001-2013
</metadata>
<g transform="translate(0.000000,2400.000000) scale(0.100000,-0.100000)"
fill="#000000" stroke="none">
<path d="M12330 22587 c-69 -35 -144 -75 -167 -90 -24 -15 -45 -27 -48 -27 -4
0 -26 -13 -50 -30 -24 -16 -46 -30 -49 -30 -4 0 -30 -17 -59 -37 -28 -20 -72
-50 -97 -67 -25 -16 -47 -32 -50 -36 -3 -3 -25 -19 -50 -35 -25 -17 -49 -35
-55 -41 -5 -6 -38 -32 -73 -58 -106 -80 -271 -224 -265 -230 4 -3 1 -6 -5 -6
-7 0 -36 -22 -65 -50 -28 -27 -56 -50 -60 -50 -5 0 -5 -4 -2 -10 3 -5 2 -10
-4 -10 -14 0 -188 -178 -346 -354 -34 -39 -79 -92 -105 -126 -14 -18 -29 -38
-35 -44 -39 -43 -125 -155 -125 -164 0 -6 -3 -12 -7 -14 -9 -4 -82 -99 -109
-143 -10 -16 -27 -39 -36 -49 -10 -11 -18 -26 -18 -33 0 -7 -3 -13 -7 -13 -8
0 -43 -56 -42 -67 0 -3 -4 -9 -9 -12 -16 -10 -61 -89 -55 -95 4 -3 2 -6 -4 -6
-11 0 -84 -124 -169 -286 -26 -49 -51 -94 -56 -101 -5 -7 -7 -17 -3 -23 3 -5
2 -10 -3 -10 -4 0 -26 -37 -47 -82 -20 -46 -48 -106 -61 -134 -13 -28 -24 -55
-24 -60 0 -5 -6 -21 -14 -36 -18 -33 -41 -101 -38 -110 1 -5 -2 -8 -7 -8 -5 0
-12 -15 -16 -32 -8 -35 -8 -35 -18 -58 -9 -21 -57 -162 -62 -180 -2 -8 -13
-49 -25 -90 -21 -72 -57 -212 -65 -255 -2 -11 -4 -20 -5 -20 -1 0 -3 -11 -5
-25 -2 -14 -6 -36 -10 -50 -11 -46 -25 -124 -30 -165 -3 -22 -7 -51 -10 -65
-24 -126 -47 -428 -47 -625 0 -113 11 -377 18 -407 3 -13 7 -45 10 -73 2 -27
6 -63 9 -80 19 -145 20 -157 31 -215 9 -50 12 -65 14 -65 1 0 3 -11 6 -25 10
-66 24 -132 31 -150 3 -8 7 -19 8 -25 1 -5 3 -12 4 -15 2 -3 4 -14 6 -25 4
-21 12 -57 15 -65 1 -3 2 -9 1 -13 -1 -4 5 -20 12 -35 7 -15 13 -34 12 -42 -1
-8 3 -24 9 -35 5 -11 10 -24 11 -30 1 -23 80 -251 89 -257 6 -4 8 -10 4 -13
-4 -4 7 -37 24 -73 16 -37 29 -67 28 -67 -2 0 14 -42 32 -82 6 -16 11 -31 10
-35 -1 -5 3 -8 9 -8 5 0 7 -4 4 -10 -3 -5 -1 -10 4 -10 6 0 10 -3 8 -8 -3 -9
46 -122 53 -122 3 0 7 -10 7 -22 1 -13 7 -24 13 -26 5 -2 8 -7 5 -12 -3 -4 2
-13 10 -20 8 -7 15 -21 15 -31 0 -11 5 -19 10 -19 6 0 9 -3 8 -7 -3 -11 63
-137 76 -145 6 -4 8 -8 3 -8 -7 0 51 -111 64 -120 3 -3 9 -15 13 -27 4 -13 12
-23 17 -23 6 0 8 -4 5 -8 -3 -5 3 -18 12 -28 10 -10 19 -23 20 -29 1 -5 8 -17
16 -27 8 -9 12 -18 10 -21 -2 -2 2 -10 11 -17 8 -7 15 -19 15 -26 0 -8 5 -14
10 -14 6 0 10 -7 10 -15 0 -8 5 -15 11 -15 5 0 7 -5 4 -10 -3 -6 1 -13 9 -16
9 -3 14 -9 11 -13 -2 -4 6 -18 19 -32 12 -13 24 -28 26 -34 1 -5 14 -28 29
-50 14 -22 25 -43 26 -47 0 -3 11 -16 24 -27 13 -12 20 -21 15 -21 -5 0 -1 -7
9 -14 10 -8 19 -18 19 -23 1 -19 11 -33 19 -28 5 3 11 -6 15 -20 3 -14 10 -25
15 -25 5 0 9 -7 9 -15 0 -8 7 -15 16 -15 8 0 12 -4 9 -10 -3 -5 -1 -10 4 -10
6 0 11 -6 11 -14 0 -8 10 -22 22 -30 12 -9 18 -16 13 -16 -5 0 2 -12 16 -27
14 -16 45 -55 69 -88 24 -33 47 -61 52 -63 4 -2 8 -10 8 -17 0 -8 10 -21 22
-29 12 -9 18 -16 13 -16 -6 -1 1 -10 14 -20 13 -11 20 -20 16 -20 -7 0 63 -90
80 -102 6 -4 7 -8 3 -8 -8 0 13 -28 48 -66 12 -13 19 -25 17 -28 -3 -3 2 -8
11 -12 9 -3 16 -12 16 -20 0 -7 10 -20 22 -28 12 -9 19 -16 14 -16 -9 0 63
-93 76 -98 5 -2 8 -10 8 -17 0 -8 10 -21 22 -29 12 -9 19 -16 14 -16 -5 0 -2
-7 5 -16 15 -18 29 -41 61 -101 12 -24 26 -43 30 -43 4 0 8 -7 8 -15 0 -8 3
-15 8 -15 4 0 13 -14 21 -32 8 -17 21 -39 30 -48 9 -9 17 -21 18 -27 1 -5 25
-47 52 -92 28 -45 51 -87 51 -92 0 -5 7 -12 15 -15 8 -4 13 -10 10 -14 -3 -5
2 -16 11 -24 8 -9 13 -16 9 -16 -3 0 3 -13 14 -29 12 -16 21 -34 21 -40 0 -6
4 -11 9 -11 5 0 11 -8 14 -17 12 -36 64 -122 71 -116 3 3 6 -2 6 -12 0 -19 37
-85 54 -97 6 -4 8 -8 3 -8 -9 0 53 -112 67 -122 6 -4 7 -8 3 -8 -7 0 30 -77
43 -90 3 -3 57 -108 120 -235 63 -126 120 -233 125 -237 6 -4 6 -8 1 -8 -4 0
-2 -10 6 -22 8 -13 23 -44 33 -70 10 -27 22 -48 27 -48 5 0 6 -5 2 -11 -3 -6
-2 -14 3 -18 7 -5 125 -262 129 -281 0 -3 9 -23 19 -45 10 -22 20 -44 21 -50
7 -28 70 -171 79 -177 5 -4 6 -8 2 -8 -4 0 -3 -9 3 -21 6 -11 13 -28 15 -37 2
-9 22 -62 43 -117 21 -55 53 -143 71 -195 18 -52 35 -102 38 -110 4 -8 5 -18
5 -22 -1 -5 2 -8 7 -8 5 0 8 -8 6 -17 -1 -10 1 -22 5 -28 4 -5 15 -37 24 -70
18 -62 29 -96 41 -130 4 -11 9 -27 10 -35 2 -17 34 -128 42 -150 3 -8 7 -24 8
-35 2 -11 7 -32 13 -46 6 -15 8 -30 5 -33 -4 -3 -1 -6 6 -6 7 0 10 -4 7 -8 -3
-5 2 -35 11 -68 8 -32 17 -68 18 -79 1 -11 3 -20 4 -20 2 0 4 -11 7 -25 2 -14
15 -79 29 -145 13 -66 26 -136 29 -155 3 -19 8 -46 10 -60 3 -14 8 -47 11 -75
4 -27 9 -59 10 -70 10 -70 16 -116 20 -160 2 -27 7 -84 11 -125 16 -161 8
-730 -11 -830 -2 -9 -6 -41 -10 -70 -4 -29 -9 -62 -11 -74 -3 -12 -7 -37 -9
-56 -2 -19 -7 -46 -10 -60 -7 -27 -15 -66 -19 -90 -1 -9 -6 -21 -10 -28 -4 -7
-5 -16 -2 -19 3 -3 1 -11 -4 -18 -5 -6 -10 -26 -12 -43 -1 -18 -6 -32 -10 -32
-4 0 -8 -8 -8 -18 0 -9 -9 -41 -19 -70 -11 -28 -18 -52 -16 -52 2 0 -9 -31
-25 -70 -16 -38 -27 -70 -24 -70 3 0 -2 -10 -10 -22 -9 -12 -16 -30 -16 -39 0
-10 -4 -19 -9 -21 -5 -1 -11 -12 -13 -23 -1 -11 -5 -22 -8 -25 -11 -11 -55
-104 -53 -112 2 -4 -2 -8 -8 -8 -5 0 -8 -4 -5 -9 3 -5 -1 -12 -10 -15 -8 -3
-12 -10 -9 -16 3 -5 2 -10 -3 -10 -8 0 -39 -56 -40 -73 0 -5 -9 -15 -19 -23
-10 -7 -13 -14 -8 -14 6 0 5 -3 -1 -8 -6 -4 -25 -28 -41 -54 -17 -26 -33 -45
-37 -41 -3 3 -6 1 -6 -5 0 -20 -3 -27 -24 -44 -12 -10 -18 -17 -15 -18 19 -1
-240 -265 -328 -334 -35 -27 -63 -53 -63 -58 0 -5 -4 -6 -10 -3 -5 3 -10 3
-10 -2 0 -4 -14 -14 -30 -21 -17 -8 -27 -18 -24 -24 4 -7 2 -8 -4 -4 -6 4 -20
-2 -32 -14 -11 -11 -24 -20 -30 -20 -5 0 -10 -5 -10 -11 0 -5 -4 -8 -8 -5 -5
3 -19 -4 -30 -15 -12 -10 -23 -19 -24 -18 -7 5 -78 -34 -78 -43 0 -5 -4 -6
-10 -3 -5 3 -10 1 -10 -5 0 -6 -4 -9 -9 -5 -5 3 -12 1 -16 -5 -4 -6 -11 -8
-16 -5 -5 4 -9 1 -9 -4 0 -6 -3 -10 -7 -9 -5 1 -34 -11 -67 -25 -32 -15 -64
-27 -71 -27 -6 0 -15 -3 -19 -7 -4 -5 -11 -8 -14 -9 -4 0 -14 -3 -22 -7 -8 -3
-40 -13 -70 -22 -30 -9 -62 -19 -70 -22 -14 -6 -37 -11 -70 -16 -8 -1 -21 -6
-27 -10 -7 -5 -13 -6 -13 -3 0 2 -15 0 -32 -5 -18 -5 -53 -12 -78 -15 -68 -9
-95 -12 -95 -14 0 -6 -155 -13 -305 -14 -209 0 -344 12 -480 43 -25 5 -56 12
-70 14 -14 3 -50 12 -80 21 -30 9 -55 16 -55 15 0 -2 -99 28 -125 38 -8 3 -24
8 -34 10 -11 2 -25 8 -32 14 -7 6 -18 8 -24 4 -5 -3 -10 -2 -10 2 0 8 -86 42
-104 42 -5 -1 -12 3 -15 8 -7 10 -95 50 -96 43 0 -2 -10 5 -23 15 -12 11 -26
20 -30 20 -4 1 -23 9 -42 20 -19 11 -39 19 -43 20 -4 0 -11 5 -15 12 -4 6 -20
15 -35 18 -15 4 -27 10 -27 14 0 4 -26 22 -57 41 -32 19 -62 38 -68 43 -72 56
-145 104 -149 99 -3 -3 -6 -1 -6 5 0 6 -26 30 -57 54 -46 36 -128 108 -176
156 -45 46 -134 143 -130 143 3 0 -9 16 -26 35 -50 58 -126 175 -185 289 -31
58 -53 106 -50 106 4 0 1 6 -5 14 -13 15 -90 245 -96 286 -2 14 -6 35 -8 46
-5 20 -14 68 -22 124 -36 224 -23 610 30 915 22 122 23 127 35 181 6 28 12 62
14 75 2 13 6 31 9 39 5 15 33 130 43 180 2 14 8 36 13 50 5 14 21 72 36 130
15 58 33 123 40 145 10 32 27 88 40 135 1 3 8 25 15 50 7 25 14 47 15 50 1 3
10 32 20 65 11 33 19 62 20 65 8 32 31 98 38 107 5 7 6 17 3 22 -4 5 -2 12 3
15 4 3 12 20 16 38 4 18 9 38 10 43 2 6 4 17 6 25 2 8 6 17 9 20 3 3 16 39 29
80 12 41 55 174 94 295 39 121 72 225 73 230 1 6 17 55 35 110 17 55 33 107
34 115 1 8 5 22 8 30 19 46 77 244 72 248 -3 3 -1 10 4 16 8 9 27 73 46 146 2
8 4 15 5 15 1 0 3 7 5 15 1 8 10 42 20 75 9 33 18 67 19 75 2 8 6 22 9 30 6
16 31 119 33 135 0 6 3 17 6 25 10 26 29 104 32 135 3 17 9 41 14 55 5 14 10
28 10 33 0 4 8 41 17 82 9 41 18 85 19 98 2 12 6 29 9 37 5 14 12 52 23 125 2
17 6 37 8 45 15 73 44 256 51 323 2 21 6 55 9 75 50 330 64 897 31 1247 -13
147 -25 246 -30 265 -2 8 -7 38 -11 65 -9 73 -10 82 -29 175 -9 47 -18 96 -21
110 -8 42 -45 194 -51 210 -3 8 -5 19 -4 24 1 6 -4 28 -12 50 -8 23 -21 64
-27 91 -7 28 -16 55 -19 60 -3 6 -6 15 -7 20 -6 39 -131 385 -143 395 -3 3 -6
10 -6 15 -1 6 -7 24 -15 40 -40 90 -60 139 -60 151 0 8 -4 14 -9 14 -5 0 -11
10 -15 23 -3 12 -5 22 -5 22 0 0 -30 59 -67 130 -37 72 -77 151 -91 178 -13
26 -28 47 -33 47 -5 0 -7 7 -4 15 4 8 1 15 -5 15 -6 0 -11 7 -11 15 0 8 -4 15
-8 15 -4 0 -14 16 -21 35 -7 19 -17 35 -22 35 -5 0 -9 7 -9 15 0 8 -5 15 -11
15 -5 0 -7 5 -4 10 3 6 1 10 -4 10 -6 0 -11 5 -11 11 0 6 -13 31 -30 56 -16
24 -30 46 -30 48 0 2 -36 57 -80 121 l-80 117 -1 -39 c0 -21 -2 -59 -4 -84 -8
-111 -16 -197 -19 -225 -2 -16 -6 -59 -10 -95 -3 -36 -8 -76 -11 -90 -3 -14
-7 -44 -10 -67 -9 -74 -21 -151 -30 -193 -3 -14 -8 -38 -10 -55 -3 -16 -7 -40
-10 -52 -12 -53 -24 -111 -30 -143 -1 -3 -4 -14 -8 -25 -3 -11 -8 -31 -11 -45
-3 -14 -9 -40 -15 -57 -5 -18 -7 -33 -4 -33 3 0 0 -7 -7 -15 -7 -8 -9 -15 -5
-15 4 0 2 -7 -5 -15 -7 -9 -10 -18 -7 -22 4 -3 2 -12 -4 -20 -6 -7 -9 -13 -6
-13 4 0 -2 -20 -13 -44 -10 -24 -16 -47 -13 -50 3 -3 0 -12 -7 -21 -7 -8 -9
-15 -5 -15 4 0 2 -6 -4 -13 -6 -8 -13 -24 -15 -38 -3 -13 -5 -25 -7 -26 -1 -2
-2 -6 -4 -10 -1 -5 -7 -21 -14 -38 -17 -45 -43 -117 -42 -122 0 -2 -17 -41
-39 -88 -22 -47 -40 -87 -40 -90 -1 -3 -13 -31 -27 -62 -15 -32 -26 -61 -25
-65 1 -5 -2 -8 -6 -8 -5 0 -15 -18 -22 -40 -7 -22 -16 -40 -20 -40 -7 0 -18
-28 -16 -40 1 -3 -9 -19 -21 -36 -12 -17 -20 -34 -16 -38 3 -3 2 -6 -4 -6 -10
0 -26 -36 -24 -52 1 -5 -3 -8 -7 -8 -5 0 -17 -18 -27 -40 -10 -22 -22 -40 -27
-40 -4 0 -8 -9 -8 -19 0 -11 -4 -21 -9 -23 -5 -2 -11 -10 -13 -18 -3 -14 -7
-20 -35 -54 -7 -8 -13 -22 -13 -31 0 -8 -4 -15 -8 -15 -9 0 -29 -37 -30 -54 0
-5 -4 -12 -9 -15 -15 -10 -75 -101 -67 -101 4 0 -1 -7 -12 -15 -10 -8 -14 -15
-9 -15 7 0 7 -3 0 -8 -15 -10 -64 -78 -67 -92 -2 -6 -15 -25 -30 -42 -16 -16
-26 -34 -23 -38 3 -4 -2 -11 -11 -14 -8 -3 -13 -10 -10 -15 4 -5 3 -11 -1 -13
-15 -6 -62 -76 -56 -82 4 -3 2 -6 -4 -6 -5 0 -31 -33 -58 -72 -27 -40 -58 -83
-69 -95 -11 -13 -17 -23 -13 -23 3 0 -4 -11 -16 -24 -28 -30 -78 -103 -77
-112 1 -4 -5 -11 -14 -16 -9 -5 -14 -13 -11 -18 3 -4 -2 -11 -11 -14 -8 -3
-12 -10 -9 -16 3 -5 -1 -10 -9 -10 -9 0 -16 -5 -16 -10 0 -6 -17 -33 -37 -61
-21 -28 -36 -56 -35 -62 2 -7 0 -9 -4 -5 -8 9 -56 -51 -49 -62 3 -5 -2 -10
-10 -14 -8 -3 -15 -13 -15 -22 0 -10 -3 -14 -7 -11 -6 6 -49 -54 -44 -61 1 -2
-7 -12 -18 -21 -12 -10 -21 -23 -21 -28 0 -6 -6 -16 -14 -22 -8 -7 -36 -44
-63 -84 -26 -40 -51 -74 -56 -75 -4 -2 -5 -8 -1 -13 3 -5 1 -9 -3 -9 -5 0 -24
-21 -41 -46 -18 -25 -27 -42 -20 -38 7 4 0 -6 -16 -23 -16 -17 -28 -33 -27
-37 0 -3 -9 -17 -20 -30 -12 -13 -20 -27 -20 -30 1 -4 -12 -21 -29 -39 -16
-17 -30 -36 -30 -41 0 -5 -18 -33 -40 -62 -22 -29 -40 -57 -40 -62 0 -5 -7
-15 -15 -22 -8 -7 -13 -16 -10 -20 3 -5 1 -10 -3 -12 -10 -4 -75 -98 -68 -98
3 0 -6 -12 -20 -27 -13 -14 -27 -37 -30 -50 -4 -13 -10 -23 -16 -23 -5 0 -14
-13 -19 -30 -6 -16 -15 -30 -21 -30 -5 0 -6 -4 -3 -10 3 -5 3 -10 -2 -10 -8 0
-47 -62 -43 -69 1 -2 -2 -7 -7 -10 -13 -9 -143 -229 -143 -241 0 -5 -4 -10 -9
-10 -5 0 -13 -10 -17 -22 -3 -12 -13 -28 -20 -36 -8 -7 -12 -17 -9 -22 3 -5 2
-10 -3 -12 -11 -5 -75 -111 -75 -125 0 -7 -4 -13 -8 -13 -3 0 -9 -8 -13 -17
-3 -10 -14 -31 -24 -48 -10 -16 -42 -74 -70 -127 -29 -54 -64 -118 -78 -143
-13 -25 -21 -45 -17 -45 4 0 3 -4 -2 -8 -6 -4 -26 -38 -45 -77 -19 -38 -43
-82 -53 -97 -10 -16 -15 -28 -10 -28 4 0 3 -4 -3 -8 -12 -7 -59 -94 -55 -101
2 -2 -1 -7 -6 -10 -14 -9 -84 -141 -75 -141 4 0 3 -4 -3 -8 -15 -11 -47 -72
-38 -72 4 0 4 -4 -2 -8 -11 -8 -31 -47 -99 -194 -25 -54 -46 -106 -48 -115 -2
-10 -9 -24 -15 -31 -12 -12 -17 -34 -14 -54 0 -5 -3 -8 -8 -8 -4 0 -16 -21
-26 -47 -10 -27 -23 -61 -30 -78 -22 -52 -29 -70 -30 -80 -1 -5 -9 -26 -18
-45 -21 -48 -99 -271 -101 -290 0 -8 -4 -17 -7 -20 -17 -13 -183 -631 -193
-715 -1 -12 -5 -25 -8 -30 -3 -6 -9 -32 -12 -58 -4 -27 -10 -59 -12 -70 -11
-49 -32 -170 -39 -222 -4 -22 -8 -53 -11 -70 -6 -35 -12 -73 -19 -135 -3 -25
-7 -59 -10 -76 -14 -110 -22 -210 -41 -489 -10 -152 -3 -670 10 -835 4 -41 9
-95 11 -120 10 -123 17 -191 26 -250 5 -36 11 -83 14 -105 2 -22 7 -58 10 -80
4 -22 8 -49 10 -60 10 -73 34 -204 59 -325 15 -70 27 -127 30 -145 2 -11 23
-92 46 -180 23 -88 43 -167 45 -175 2 -8 14 -46 25 -85 12 -38 29 -96 37 -127
9 -32 18 -58 22 -58 4 0 8 -12 9 -26 1 -15 6 -32 10 -38 5 -6 17 -39 27 -73
10 -35 22 -63 27 -63 5 0 6 -4 3 -10 -3 -5 2 -29 12 -52 11 -24 25 -62 33 -86
7 -23 16 -42 20 -42 4 0 7 -6 7 -14 0 -21 45 -130 57 -138 6 -4 8 -8 4 -8 -8
0 23 -75 100 -240 14 -30 27 -57 27 -60 6 -21 71 -147 79 -152 6 -4 7 -8 3 -8
-7 0 49 -116 63 -130 3 -3 15 -25 28 -50 45 -87 106 -195 112 -200 4 -3 13
-20 21 -37 8 -18 17 -33 21 -33 5 0 8 -5 8 -11 0 -6 14 -31 30 -56 17 -24 30
-48 30 -54 0 -5 5 -9 10 -9 6 0 10 -4 10 -10 0 -13 119 -194 131 -198 5 -2 9
-8 9 -14 0 -12 186 -278 206 -294 8 -6 14 -14 14 -17 0 -7 24 -39 53 -69 9
-10 17 -22 17 -27 0 -5 11 -19 26 -30 14 -11 25 -23 26 -28 1 -15 25 -43 31
-36 4 3 7 0 7 -8 0 -8 15 -30 33 -51 19 -20 51 -57 73 -83 21 -26 55 -65 74
-86 19 -21 67 -72 105 -114 39 -43 80 -88 92 -101 12 -13 28 -24 34 -24 7 0
10 -3 6 -6 -4 -5 178 -194 188 -194 1 0 27 -24 57 -53 98 -94 148 -138 148
-132 0 3 14 -10 31 -30 18 -20 33 -34 36 -32 2 3 18 -10 36 -27 18 -17 52 -47
76 -66 24 -19 60 -50 80 -67 20 -18 39 -33 43 -33 4 0 13 -6 20 -13 7 -7 31
-26 53 -42 22 -17 42 -32 45 -35 10 -10 252 -182 289 -205 9 -5 32 -22 52 -38
20 -15 42 -27 48 -27 6 0 11 -4 11 -8 0 -10 50 -37 63 -34 4 1 7 -2 7 -6 0 -5
19 -19 43 -32 23 -13 44 -26 47 -30 3 -3 32 -21 65 -40 33 -18 67 -39 75 -46
8 -7 18 -13 23 -13 4 0 35 -17 70 -37 34 -20 68 -37 75 -37 6 0 12 -4 12 -8 0
-9 398 -209 417 -209 7 0 13 -4 13 -10 0 -5 6 -10 13 -10 7 0 31 -9 53 -19 21
-11 42 -17 46 -14 5 2 8 0 8 -6 0 -5 17 -15 38 -22 20 -7 70 -27 110 -46 40
-18 77 -31 83 -28 5 4 9 2 9 -3 0 -5 26 -17 58 -27 31 -11 62 -22 67 -26 6 -4
39 -17 75 -28 36 -12 74 -26 85 -30 101 -44 625 -195 753 -217 15 -3 45 -10
67 -16 22 -5 51 -12 65 -15 29 -5 44 -7 120 -23 98 -19 142 -27 205 -35 17 -2
40 -6 52 -9 11 -2 43 -7 70 -11 85 -11 112 -15 146 -20 96 -14 272 -29 497
-42 220 -13 759 -6 930 12 25 2 72 7 105 10 77 7 152 15 190 20 17 2 53 6 80
9 28 3 59 8 70 10 11 3 43 8 70 11 28 4 57 8 65 10 8 3 33 7 55 10 80 12 210
36 225 42 8 3 18 6 22 5 10 -2 351 79 363 86 5 4 15 7 20 7 31 2 95 18 95 24
0 4 8 7 18 8 28 2 60 11 212 60 80 25 150 48 155 49 43 10 272 99 277 108 4 6
8 8 8 4 0 -8 81 21 90 31 3 3 12 7 20 9 16 3 86 31 157 63 23 11 47 19 52 19
6 0 11 5 11 11 0 5 4 8 9 4 5 -3 17 3 27 12 10 10 20 17 23 15 10 -6 171 70
171 81 0 5 6 7 14 4 8 -3 16 -3 18 1 2 4 48 30 103 57 94 47 252 133 285 155
8 6 22 13 30 17 33 15 145 86 152 97 5 6 8 7 8 1 0 -5 7 -1 15 9 8 11 15 17
15 13 0 -9 203 122 212 137 4 6 8 8 8 4 0 -5 20 7 44 25 24 17 70 50 102 72
32 22 68 50 81 62 13 12 23 20 23 17 0 -5 53 34 97 71 23 19 38 30 85 66 26
20 44 40 40 43 -4 4 -2 7 3 6 22 -5 35 1 35 16 0 8 5 12 10 9 6 -3 13 1 16 9
3 9 11 16 16 16 9 0 43 29 115 97 13 13 26 23 29 23 3 0 15 10 28 23 56 53
199 182 207 185 5 2 9 11 9 19 0 9 3 13 6 10 7 -7 44 30 44 45 0 4 4 7 8 5 11
-3 258 253 254 265 -1 5 2 7 7 4 5 -4 16 2 23 13 8 11 41 50 73 87 88 100 104
118 112 129 5 6 30 36 57 67 27 32 45 58 40 58 -5 0 2 7 14 16 12 8 19 20 16
26 -4 7 -2 8 4 4 6 -4 16 4 23 16 7 13 15 25 19 28 4 3 31 39 60 80 30 41 57
77 60 80 4 3 21 28 40 55 19 28 36 52 40 55 3 3 23 32 45 65 21 33 42 62 47
63 4 2 8 9 8 16 0 7 10 25 23 40 13 15 72 109 132 209 115 193 125 210 172
297 17 30 42 76 56 101 14 26 23 49 20 53 -4 3 -2 6 4 6 10 0 33 49 32 67 -1
3 3 9 8 12 10 6 55 99 51 103 -2 2 7 17 20 35 12 17 22 35 22 40 0 5 14 38 31
73 17 35 31 72 32 82 1 10 4 18 8 18 7 0 44 91 41 102 -1 5 3 8 8 8 6 0 10 5
10 10 0 6 16 51 36 101 20 51 37 97 38 103 1 6 10 28 19 50 9 21 14 42 11 47
-3 5 -1 9 4 9 8 0 13 11 27 63 2 4 4 9 5 12 1 3 3 8 5 13 1 4 4 14 8 22 11 30
42 125 43 135 0 6 4 17 7 25 12 28 73 234 83 275 1 6 9 37 18 70 9 33 19 71
22 85 3 14 7 33 10 42 3 9 7 25 9 35 2 10 11 52 20 93 9 41 18 84 21 95 20
101 25 124 29 155 3 19 7 46 10 60 4 14 8 39 11 55 3 17 9 54 14 84 6 29 7 57
5 61 -3 5 -1 11 5 15 6 4 8 10 6 13 -2 4 -1 28 4 52 7 41 11 70 25 210 11 107
20 228 31 400 7 119 6 569 -1 675 -2 39 -7 106 -10 150 -6 96 -13 186 -20 240
-2 22 -7 65 -11 95 -13 121 -18 156 -44 315 -14 84 -18 106 -41 225 -11 58
-22 115 -24 127 -2 11 -6 30 -10 42 -3 11 -8 33 -11 47 -3 15 -12 54 -20 88
-9 34 -16 67 -16 74 -1 6 -5 12 -10 12 -5 0 -6 5 -3 10 3 6 1 25 -4 43 -6 17
-29 95 -51 172 -21 77 -46 160 -55 185 -9 25 -19 56 -21 69 -3 14 -8 29 -12
35 -4 6 -7 13 -7 16 -2 15 -79 228 -108 300 -6 14 -11 27 -11 30 -2 11 -51
128 -78 188 -15 34 -28 64 -28 66 0 17 -265 555 -279 566 -3 3 -21 35 -39 73
-19 37 -38 67 -43 67 -5 0 -8 3 -7 8 3 10 -92 172 -101 172 -4 0 -8 6 -8 13 0
15 -241 380 -254 385 -5 2 -9 8 -9 13 0 10 -9 22 -40 57 -8 10 -24 31 -34 47
-19 30 -185 246 -196 255 -3 3 -25 30 -50 60 -24 30 -56 67 -71 81 -14 14 -29
34 -32 43 -4 10 -12 14 -17 11 -6 -4 -9 -2 -8 3 2 5 -40 55 -92 111 -52 56
-98 109 -103 117 -4 7 -15 14 -23 14 -8 0 -13 4 -10 8 6 11 -30 42 -39 34 -4
-4 -5 -2 -3 3 7 23 -489 484 -513 477 -5 -1 -9 2 -9 7 0 5 -46 46 -102 91 -57
44 -111 87 -120 95 -9 7 -29 22 -45 32 -15 10 -32 23 -38 29 -5 6 -41 33 -80
59 -38 27 -84 59 -101 72 -17 12 -34 21 -37 18 -4 -3 -5 -2 -2 1 5 7 -70 64
-84 64 -5 0 -11 4 -13 8 -5 13 -162 127 -170 124 -5 -1 -8 2 -8 7 0 5 -15 18
-32 30 -18 11 -42 28 -53 38 -38 34 -135 104 -135 96 0 -4 -6 0 -12 9 -15 19
-125 108 -133 108 -3 0 -18 12 -33 26 -15 14 -39 33 -54 42 -16 9 -28 20 -28
24 0 4 -7 8 -15 8 -8 0 -15 4 -15 10 0 5 -19 22 -42 39 -24 16 -61 46 -83 65
-22 20 -43 36 -46 36 -3 0 -17 10 -31 23 -55 50 -79 67 -90 67 -6 0 -9 3 -5 6
3 3 -15 22 -41 42 -26 19 -49 38 -52 41 -3 3 -25 22 -50 42 -25 20 -63 53 -85
72 -22 20 -46 37 -54 37 -8 0 -11 3 -8 6 8 8 -44 50 -56 46 -5 -1 -6 2 -3 7 3
5 -6 16 -20 26 -14 9 -33 24 -43 33 -72 69 -110 100 -115 95 -3 -4 -6 1 -6 10
0 9 -4 17 -8 17 -4 0 -41 30 -82 68 -40 37 -77 66 -80 65 -4 -1 -13 9 -20 22
-7 14 -17 25 -21 25 -4 0 -22 16 -40 35 -18 18 -37 31 -42 28 -6 -3 -8 -2 -5
3 6 11 -48 65 -56 56 -3 -3 -6 2 -6 11 0 9 -3 17 -7 17 -5 0 -63 54 -131 120
-68 66 -127 120 -132 120 -6 0 -9 3 -8 8 2 4 -1 7 -6 7 -5 0 -13 10 -17 23 -5
13 -13 20 -19 17 -6 -4 -9 -2 -8 3 2 5 -50 62 -114 127 -65 66 -118 121 -118
123 0 2 -27 30 -60 64 -33 33 -60 62 -60 64 0 3 -10 15 -22 28 -30 30 -90 96
-158 176 -30 35 -70 79 -89 99 -19 20 -32 36 -30 36 5 1 -16 27 -63 76 -20 21
-34 39 -32 39 3 0 -18 27 -46 61 -27 33 -50 64 -50 70 0 5 -7 9 -16 9 -8 0
-13 4 -9 9 3 5 -5 17 -17 25 -12 9 -18 16 -13 16 6 0 6 3 0 8 -6 4 -30 34 -54
67 -25 33 -48 62 -53 63 -4 2 -8 8 -8 14 0 5 -6 15 -12 22 -7 8 -20 24 -28 36
-8 13 -23 32 -32 42 -10 10 -15 18 -10 18 4 0 -2 7 -12 15 -11 8 -16 15 -10
15 5 0 4 4 -1 8 -6 4 -31 37 -55 74 -25 38 -48 68 -52 68 -5 0 -8 5 -8 11 0 7
-27 52 -60 101 -33 49 -60 93 -60 98 0 5 -7 13 -16 18 -9 5 -16 13 -16 18 0
19 -65 124 -73 117 -4 -5 -5 -3 -2 4 4 6 1 17 -6 25 -14 13 -17 21 -17 39 0 5
-4 7 -10 4 -6 -3 -7 1 -4 9 3 9 2 16 -3 16 -5 0 -20 23 -32 50 -12 28 -27 50
-32 50 -5 0 -8 3 -7 8 4 13 -13 52 -23 52 -5 0 -9 8 -9 19 0 10 -7 24 -15 31
-8 7 -15 16 -15 21 0 15 -83 184 -92 187 -5 2 -6 7 -3 12 3 5 0 14 -7 22 -7 7
-14 20 -16 28 -1 8 -13 40 -27 70 -38 88 -48 115 -47 123 1 4 -3 7 -8 7 -5 0
-9 3 -8 8 2 4 -14 52 -34 107 -20 55 -42 118 -50 140 -7 22 -15 42 -18 45 -3
3 -5 10 -6 15 -1 27 -17 85 -23 85 -4 0 -7 8 -8 18 -1 19 -5 36 -24 102 -6 25
-13 52 -15 60 -1 8 -7 33 -13 55 -5 22 -12 51 -14 65 -3 14 -12 59 -20 100 -9
41 -19 98 -22 125 -4 28 -8 61 -10 75 -32 211 -38 676 -10 821 3 12 7 43 10
68 3 25 8 60 10 76 19 108 37 195 50 244 8 31 16 66 18 77 2 10 9 32 16 48 6
16 13 40 14 55 2 15 6 31 9 36 3 6 20 53 38 105 18 52 45 123 61 158 15 34 25
62 22 62 -3 0 0 6 6 13 6 8 8 17 4 20 -3 4 -1 7 5 7 7 0 12 5 12 11 0 15 92
201 108 217 7 8 10 17 7 22 -3 4 2 13 10 20 8 7 15 16 15 21 0 5 17 34 37 66
20 31 36 63 36 70 0 7 4 13 8 13 5 0 16 14 25 32 9 18 23 38 30 46 8 7 12 18
9 23 -4 5 -1 9 5 9 10 0 48 55 50 72 0 4 10 18 23 32 37 41 48 56 40 56 -4 0
-3 4 2 8 6 4 42 48 80 97 38 50 74 95 80 101 5 7 26 31 45 54 19 23 44 51 54
61 32 31 8 22 -124 -44z"/>
</g>
</svg>
